<?xml version="1.0" encoding="iso-8859-1"?>
<!-- Uploaded to: SVG Repo, www.svgrepo.com, Generator: SVG Repo Mixer Tools -->
<svg version="1.1" id="Layer_1" xmlns="http://www.w3.org/2000/svg" xmlns:xlink="http://www.w3.org/1999/xlink" 
	 viewBox="0 0 392.6 392.6" xml:space="preserve">
<rect x="44.478" y="240.583" style="fill:#56ACE0;" width="112.485" height="77.64"/>
<polygon style="fill:#FFFFFF;" points="40.793,340.074 27.476,370.781 174.094,370.781 160.777,340.074 "/>
<path style="fill:#194F82;" d="M200.664,377.375l-21.786-50.489v-97.228c0-6.012-4.848-10.925-10.925-10.925H33.618
	c-6.012,0-10.925,4.848-10.925,10.925v97.228L0.907,377.375c-3.103,7.176,2.133,15.192,10.02,15.192h179.717
	C198.531,392.566,203.767,384.55,200.664,377.375z M27.476,370.781l13.317-30.707h119.984l13.317,30.707H27.476z M44.478,240.583
	h112.485v77.64H44.478V240.583z"/>
<path style="fill:#FFC10D;" d="M220.769,40.373h40.016c6.012,0,10.925,4.848,10.925,10.925s-4.848,10.925-10.925,10.925h-40.016
	v19.394h14.287c6.012,0,10.925,4.848,10.925,10.925c0,6.012-4.848,10.925-10.925,10.925h-14.287v18.554h149.98V21.819h-149.98
	L220.769,40.373L220.769,40.373z"/>
<polygon style="fill:#56ACE0;" points="281.278,143.678 270.482,163.072 321.036,163.072 310.24,143.678 "/>
<g>
	<path style="fill:#194F82;" d="M381.674,0.033h-171.83c-6.012,0-10.925,4.848-10.925,10.925v121.859
		c0,6.012,4.848,10.925,10.925,10.925h46.416l-13.899,24.954c-4.008,7.24,1.228,16.226,9.503,16.226h87.79
		c8.339,0,13.576-8.986,9.503-16.226l-13.899-25.018h46.416c6.012,0,10.925-4.848,10.925-10.925V10.894
		C392.535,4.882,387.686,0.033,381.674,0.033z M270.482,163.072l10.796-19.394h28.962l10.796,19.394H270.482z M370.749,121.892
		h-149.98v-18.554h14.287c6.012,0,10.925-4.848,10.925-10.925c0-6.012-4.848-10.925-10.925-10.925h-14.287V62.094h40.016
		c6.012,0,10.925-4.848,10.925-10.925s-4.848-10.925-10.925-10.925h-40.016V21.69h149.98V121.892L370.749,121.892z"/>
	<path style="fill:#194F82;" d="M65.424,177.229c6.012,0,10.925-4.848,10.925-10.925V76.381h89.923
		c6.012,0,10.925-4.848,10.925-10.925c0-6.012-4.848-10.925-10.925-10.925H65.424c-6.012,0-10.925,4.848-10.925,10.925v100.848
		C54.563,172.316,59.412,177.229,65.424,177.229z"/>
	<path style="fill:#194F82;" d="M325.238,215.564c-5.301,0.905-9.051,5.947-9.051,11.378v89.341h-89.341
		c-5.43,0-10.408,3.685-11.378,9.051c-1.164,6.788,4.073,12.8,10.731,12.8h100.848c6.012,0,10.925-4.848,10.925-10.925V226.296
		C338.038,219.637,332.026,214.401,325.238,215.564z"/>
</g>
</svg>